HIERARCHY
ROOT Hips
{
    OFFSET 0.000000 0.000000 0.000000
    CHANNELS 6 Xposition Yposition Zposition Zrotation Xrotation Yrotation
    JOINT Spine
    {
        OFFSET -0.000000 14.517291 0.000000
        CHANNELS 3 Zrotation Xrotation Yrotation
        JOINT Spine1
        {
            OFFSET -0.000000 37.558300 0.000000
            CHANNELS 3 Zrotation Xrotation Yrotation
            JOINT Neck
            {
                OFFSET -0.000000 37.404057 3.400369
                CHANNELS 3 Zrotation Xrotation Yrotation
                JOINT Head
                {
                    OFFSET -0.000000 24.785618 -3.540803
                    CHANNELS 3 Zrotation Xrotation Yrotation
                    End Site
                    {
                        OFFSET -0.000000 35.408028 0.000000
                    }
                }
            }
            JOINT LeftShoulder
            {
                OFFSET 6.992933 33.973492 -0.192664
                CHANNELS 3 Zrotation Xrotation Yrotation
                JOINT LeftArm
                {
                    OFFSET 21.527611 0.000000 0.000000
                    CHANNELS 3 Zrotation Xrotation Yrotation
                    JOINT LeftForeArm
                    {
                        OFFSET 56.353916 0.000000 0.000000
                        CHANNELS 3 Zrotation Xrotation Yrotation
                        JOINT LeftHand
                        {
                            OFFSET 47.774071 0.000000 0.000000
                            CHANNELS 3 Zrotation Xrotation Yrotation
                            End Site
                            {
                                OFFSET 26.556021 0.000000 0.000000
                            }
                        }
                    }
                }
            }
            JOINT RightShoulder
            {
                OFFSET -7.065357 33.973492 -0.192664
                CHANNELS 3 Zrotation Xrotation Yrotation
                JOINT RightArm
                {
                    OFFSET -21.527611 0.000000 0.000000
                    CHANNELS 3 Zrotation Xrotation Yrotation
                    JOINT RightForeArm
                    {
                        OFFSET -56.353916 0.000000 0.000000
                        CHANNELS 3 Zrotation Xrotation Yrotation
                        JOINT RightHand
                        {
                            OFFSET -47.774071 0.000000 0.000000
                            CHANNELS 3 Zrotation Xrotation Yrotation
                            End Site
                            {
                                OFFSET -26.556021 0.000000 0.000000
                            }
                        }
                    }
                }
            }
        }
    }
    JOINT LeftUpLeg
    {
        OFFSET 17.704014 0.000000 0.000000
        CHANNELS 3 Zrotation Xrotation Yrotation
        JOINT LeftLeg
        {
            OFFSET -0.000000 -81.181816 0.000000
            CHANNELS 3 Zrotation Xrotation Yrotation
            JOINT LeftFoot
            {
                OFFSET -0.000000 -62.821102 0.000000
                CHANNELS 3 Zrotation Xrotation Yrotation
                JOINT LeftToeBase
                {
                    OFFSET -0.000000 -11.507608 26.556021
                    CHANNELS 3 Zrotation Xrotation Yrotation
                    End Site
                    {
                        OFFSET -0.000000 0.000000 7.081605
                    }
                }
            }
        }
    }
    JOINT RightUpLeg
    {
        OFFSET -17.704014 0.000000 0.000000
        CHANNELS 3 Zrotation Xrotation Yrotation
        JOINT RightLeg
        {
            OFFSET -0.000000 -81.181816 0.000000
            CHANNELS 3 Zrotation Xrotation Yrotation
            JOINT RightFoot
            {
                OFFSET -0.000000 -62.821102 0.000000
                CHANNELS 3 Zrotation Xrotation Yrotation
                JOINT RightToeBase
                {
                    OFFSET -0.000000 -11.507608 26.556021
                    CHANNELS 3 Zrotation Xrotation Yrotation
                    End Site
                    {
                        OFFSET -0.000000 0.000000 7.081605
                    }
                }
            }
        }
    }
}
MOTION
Frames:    14
Frame Time:    0.008333
33.807873    152.525848    -5.155984    3.916238    3.957313    -14.932809    8.004317    0.319445    13.146122    -8.189181    -0.285747    4.369920    7.612410    -4.272955    -0.957018    -3.768277    9.137703    -2.658621    1.532899    2.681303    -7.011424    -46.810394    14.776878    -35.035114    -4.394642    -21.733385    -125.602547    -1.098028    -29.424774    -3.657233    -17.051382    -1.453367    6.853244    32.149002    -20.322582    79.331650    4.182782    -15.993865    20.767649    11.360006    -12.374236    43.079189    -0.273949    -36.259972    -11.029766    -18.600494    30.615005    -9.546415    4.699894    0.444558    40.103870    0.000000    0.000000    0.000000    0.887827    8.927538    -15.407923    1.942510    22.762709    -4.730360    1.108445    -32.249794    -4.580153    0.000000    0.000000    0.000000    
33.771881    152.462891    -5.183197    3.868549    3.916918    -14.799721    7.986370    0.315308    13.080804    -8.258657    -0.227325    4.352057    7.667244    -4.303643    -0.974834    -3.719293    9.117036    -2.687080    1.614635    2.683771    -6.984422    -46.881882    14.848412    -35.028370    -4.414422    -21.650406    -125.590179    -0.949507    -29.383329    -3.588343    -16.958855    -1.478844    6.879323    32.132957    -20.316887    79.295441    4.159535    -15.992863    20.776247    11.336500    -12.377765    43.086025    -0.285191    -36.267075    -11.078435    -18.641325    30.697737    -9.556822    4.758384    0.419763    40.067677    0.000000    0.000000    0.000000    0.948594    8.905231    -15.471410    1.960763    22.954613    -4.821630    1.093528    -32.350758    -4.575148    0.000000    0.000000    0.000000    
33.741112    152.401855    -5.218339    3.829774    3.895405    -14.656550    7.928388    0.333852    13.032960    -8.260884    -0.253388    4.334587    7.664122    -4.300304    -1.020539    -3.650299    9.106748    -2.729774    1.653458    2.707407    -6.998994    -46.957939    14.885299    -34.976887    -4.445330    -21.560410    -125.609695    -0.957847    -29.354902    -3.564661    -16.900572    -1.473124    6.854247    32.094585    -20.275837    79.288902    4.103122    -15.982037    20.750978    11.387719    -12.335572    43.087749    -0.312851    -36.288666    -11.101317    -18.649755    30.771568    -9.589928    4.839906    0.431496    39.995621    0.000000    0.000000    0.000000    1.006122    8.875452    -15.644875    1.934163    23.118435    -4.862401    1.153784    -32.446831    -4.481752    0.000000    0.000000    0.000000    
33.701984    152.340149    -5.251223    3.784701    3.868399    -14.507158    7.854409    0.358006    12.983529    -8.216396    -0.287123    4.316247    7.657776    -4.279549    -1.071077    -3.627710    9.083638    -2.779071    1.653670    2.719829    -7.015698    -46.990360    14.960230    -34.923302    -4.470700    -21.516157    -125.622719    -0.963412    -29.358650    -3.574206    -16.871138    -1.454563    6.826171    32.070076    -20.264904    79.284492    4.115100    -15.968856    20.752377    11.365340    -12.331188    43.104492    -0.329157    -36.300022    -11.087698    -18.647596    30.851702    -9.657919    4.943569    0.446291    39.901527    0.000000    0.000000    0.000000    1.069401    8.865334    -15.864063    1.893699    23.258646    -4.892910    1.253851    -32.531292    -4.352044    0.000000    0.000000    0.000000    
33.666061    152.282532    -5.267514    3.731362    3.827188    -14.362514    7.798764    0.383744    12.940879    -8.169673    -0.311008    4.300972    7.648676    -4.273194    -1.111176    -3.613704    9.106757    -2.817054    1.642549    2.729154    -7.051220    -47.028561    14.984262    -34.844234    -4.478787    -21.471588    -125.653038    -1.028488    -29.334118    -3.531798    -16.854698    -1.452756    6.805557    32.070972    -20.252819    79.275208    4.140406    -15.913099    20.731689    11.273555    -12.316027    43.087521    -0.345559    -36.291721    -11.058316    -18.639532    30.939295    -9.727775    5.055149    0.461087    39.822994    0.000000    0.000000    0.000000    1.124799    8.887853    -16.155272    1.840625    23.377632    -4.861934    1.375751    -32.593521    -4.176451    0.000000    0.000000    0.000000    
33.627693    152.227783    -5.282607    3.674958    3.799569    -14.221507    7.755687    0.395764    12.904113    -8.135395    -0.329801    4.287728    7.656416    -4.278382    -1.140682    -3.608465    9.143389    -2.848045    1.651732    2.743476    -7.087842    -47.042656    15.043241    -34.792641    -4.496049    -21.420143    -125.646866    -0.921559    -29.317137    -3.536915    -16.824055    -1.431452    6.774938    32.055435    -20.245644    79.286545    4.140895    -15.863420    20.695225    11.234254    -12.280979    43.075176    -0.352813    -36.294823    -11.019715    -18.623514    31.028387    -9.836044    5.158800    0.472730    39.770313    0.000000    0.000000    0.000000    1.183399    8.897224    -16.427814    1.793684    23.500298    -4.832429    1.505131    -32.644321    -4.010369    0.000000    0.000000    0.000000    
33.610500    152.183960    -5.292332    3.606045    3.782978    -14.068114    7.769991    0.394567    12.866575    -8.119003    -0.333435    4.275009    7.591207    -4.260324    -1.190070    -3.530590    9.142081    -2.881133    1.617936    2.768070    -7.114321    -46.998295    15.091065    -34.782471    -4.491628    -21.422445    -125.642799    -0.902476    -29.311909    -3.485320    -16.839804    -1.437966    6.760158    32.083820    -20.228828    79.275261    4.153788    -15.838825    20.658884    11.214636    -12.258639    43.128803    -0.378979    -36.310371    -11.013009    -18.585512    31.129194    -9.973240    5.257652    0.491675    39.749905    0.000000    0.000000    0.000000    1.235334    8.889552    -16.735622    1.761427    23.645538    -4.805714    1.664961    -32.673409    -3.821542    0.000000    0.000000    0.000000    
33.579350    152.141144    -5.313549    3.545321    3.782529    -13.933346    7.758759    0.387467    12.846101    -8.092218    -0.349791    4.266943    7.525872    -4.253196    -1.238494    -3.435451    9.152067    -2.912465    1.613411    2.797064    -7.135841    -46.978447    15.093314    -34.780109    -4.525236    -21.347034    -125.631866    -0.883459    -29.297697    -3.482488    -16.844330    -1.445758    6.733747    32.084881    -20.193188    79.253159    4.141979    -15.842968    20.638157    11.257803    -12.237468    43.179600    -0.391765    -36.349560    -10.997933    -18.549171    31.238382    -10.113005    5.343791    0.501434    39.738026    0.000000    0.000000    0.000000    1.291679    8.852583    -16.963335    1.737052    23.800594    -4.811107    1.813867    -32.702274    -3.659491    0.000000    0.000000    0.000000    
33.550343    152.106262    -5.332147    3.482669    3.788587    -13.812326    7.787736    0.311170    12.894678    -8.107957    -0.262482    4.287558    7.489389    -4.223033    -1.322085    -3.346550    9.093712    -2.986740    1.651616    2.794166    -7.281011    -46.964653    15.090787    -34.764755    -4.540081    -21.327467    -125.603409    -0.851921    -29.300915    -3.472821    -16.819275    -1.440483    6.665780    32.076008    -20.205070    79.206413    4.149500    -15.826518    20.627239    11.248469    -12.224866    43.183582    -0.400825    -36.389885    -11.008597    -18.520723    31.330048    -10.213169    5.438412    0.532304    39.714108    0.000000    0.000000    0.000000    1.348155    8.801498    -17.157928    1.717661    23.972897    -4.800838    1.932229    -32.718887    -3.549969    0.000000    0.000000    0.000000    
33.534431    152.074417    -5.351821    3.426482    3.795468    -13.711932    7.806022    0.300777    12.900359    -8.117066    -0.267769    4.288860    7.468338    -4.226150    -1.354373    -3.296676    9.095805    -3.013356    1.652365    2.800942    -7.269473    -46.930691    15.128741    -34.797459    -4.574332    -21.285175    -125.597496    -0.833852    -29.319412    -3.449179    -16.814928    -1.433177    6.636890    32.092884    -20.188953    79.204842    4.143878    -15.829054    20.618637    11.217076    -12.238396    43.183754    -0.410307    -36.430763    -11.056048    -18.515650    31.406094    -10.302838    5.520037    0.550548    39.735424    0.000000    0.000000    0.000000    1.392292    8.735529    -17.360231    1.683462    24.155878    -4.783251    2.064155    -32.729450    -3.422734    0.000000    0.000000    0.000000    
33.523136    152.046295    -5.363129    3.380425    3.796457    -13.626874    7.811640    0.286652    12.907127    -8.118237    -0.267160    4.290833    7.457317    -4.238122    -1.378688    -3.251691    9.107938    -3.034154    1.664532    2.801506    -7.254234    -46.919857    15.144366    -34.812469    -4.607597    -21.219612    -125.602654    -0.825028    -29.315823    -3.451103    -16.809746    -1.417821    6.631000    32.081718    -20.186296    79.185265    4.127880    -15.828626    20.618395    11.221829    -12.239758    43.125080    -0.433824    -36.459957    -11.131891    -18.500519    31.470436    -10.389705    5.592857    0.572032    39.759663    0.000000    0.000000    0.000000    1.425934    8.680579    -17.546633    1.643502    24.324234    -4.740226    2.178198    -32.751545    -3.324917    0.000000    0.000000    0.000000    
33.522064    152.024612    -5.374735    3.347397    3.796501    -13.566168    7.803899    0.263480    12.929049    -8.091753    -0.247733    4.299050    7.399206    -4.238429    -1.414612    -3.181609    9.085775    -3.056855    1.655526    2.810900    -7.252933    -46.914989    15.135531    -34.831390    -4.605582    -21.191368    -125.609268    -0.809929    -29.287792    -3.416209    -16.843533    -1.421988    6.623949    32.111595    -20.178585    79.180565    4.105474    -15.846329    20.593788    11.244902    -12.241546    43.146072    -0.462132    -36.486740    -11.223996    -18.491049    31.521412    -10.447359    5.645662    0.587813    39.791077    0.000000    0.000000    0.000000    1.437720    8.621723    -17.671494    1.636239    24.482273    -4.739227    2.234827    -32.762283    -3.270779    0.000000    0.000000    0.000000    
33.525978    152.002762    -5.378162    3.334200    3.785020    -13.519433    7.784572    0.242348    12.956163    -8.093532    -0.213422    4.310003    7.365629    -4.255655    -1.444624    -3.102287    9.071762    -3.078244    1.665321    2.799647    -7.244521    -46.909161    15.127798    -34.846893    -4.614697    -21.150585    -125.618729    -0.828622    -29.266401    -3.406523    -16.841381    -1.418865    6.610716    32.105362    -20.182665    79.172050    4.099230    -15.884144    20.591349    11.251278    -12.272666    43.178516    -0.507293    -36.497028    -11.320701    -18.485596    31.564211    -10.490275    5.692688    0.585535    39.827160    0.000000    0.000000    0.000000    1.426619    8.582474    -17.770380    1.639424    24.618511    -4.754305    2.302216    -32.795639    -3.208326    0.000000    0.000000    0.000000    
33.536194    151.987000    -5.371316    3.327187    3.747430    -13.486194    7.762101    0.245436    12.987343    -8.106664    -0.177256    4.322997    7.341198    -4.275187    -1.472617    -3.026113    9.056528    -3.099597    1.681684    2.803180    -7.247718    -46.904381    15.112487    -34.860371    -4.617950    -21.138723    -125.641914    -0.883031    -29.263340    -3.436182    -16.844240    -1.429473    6.607934    32.122639    -20.184244    79.152168    4.099911    -15.900191    20.592592    11.242007    -12.291638    43.188831    -0.554545    -36.473621    -11.453090    -18.512516    31.573956    -10.452625    5.729616    0.588562    39.834179    0.000000    0.000000    0.000000    1.403153    8.578043    -17.853523    1.653437    24.732620    -4.746347    2.306242    -32.815392    -3.212065    0.000000    0.000000    0.000000    
